<?xml version="1.0" encoding="UTF-8"?>
<svg xmlns="http://www.w3.org/2000/svg" width="40" height="40" viewBox="0 0 40 40">
  <g>
 <path id="bigF" d="M8.802 16.202 L8.307 17.835 11.314 17.835 8.345 29.686 C7.812 31.806 6.861 37.506 5.072 37.506 4.806 37.506 4.692 37.401 4.692 37.262 4.692 36.533 5.453 36.915 5.453 35.629 5.453 34.76 4.92 33.787 3.283 33.787 1.723 33.787 1 35.108 1 36.324 1 37.645 2.104 39 4.577 39 7.85 39 9.905 36.706 10.933 34.899 11.656 33.578 12.151 32.223 12.379 31.285 L15.728 17.835 18.735 17.835 19.191 16.202 16.147 16.202 16.642 13.943 C17.174 11.545 18.126 9.494 19.306 9.494 19.572 9.494 19.686 9.599 19.686 9.738 19.686 10.467 18.925 10.224 18.925 11.51 18.925 12.379 19.458 13.213 21.094 13.213 22.655 13.213 23.378 11.892 23.378 10.676 23.378 9.355 22.274 8 19.8 8 16.527 8 14.434 10.259 13.445 12.136 12.303 14.325 12.189 16.202 10.781 16.202 Z" fill="#000000" fill-opacity="1" stroke="none"/>
 <path id="bigLambda" d="M37.971 26.466 C37.299 28.703 36.225 29.867 35.285 29.867 34.256 29.867 32.824 29.017 32.824 25.481 L32.824 8.161 C32.824 4.804 32.689 1.626 30.362 1.626 27.229 1.626 25.663 4.894 24.768 8.205 L25.797 8.205 C26.468 5.968 27.498 4.759 28.482 4.759 29.87 4.759 30.944 6.326 30.944 10.577 L30.944 12.815 17.428 32.284 22.44 32.284 31.034 19.976 C30.631 23.378 30.183 25.615 30.183 27.764 30.183 30.852 31.123 33 33.271 33 36.583 33 38.329 29.733 39 26.466 Z" fill="#000000" fill-opacity="1" stroke="none"/>
  </g>
</svg>
