<?xml version="1.0" encoding="UTF-8"?>
<svg xmlns="http://www.w3.org/2000/svg" viewBox="0 0 16 16">
    <g>
        <polygon fill="#DDDDDD" fill-opacity=".8" points="7 1 3 5 7 5"/>
        <polygon fill="#DDDDDD" fill-opacity=".8" points="8 1 8 6 3 6 3 15 13 15 13 1"/>

        <path d="M13.66,10.29c-.23.74-.59,1.13-.9,1.13s-.82-.28-.82-1.46V4.18c0-1.12,0-2.18-.82-2.18-1,0-1.57,1.09-1.87,2.2H9.6c.22-.75.56-1.15.89-1.15s.82.52.82,1.94v.74L6.8,12.23H8.48l2.86-4.11c-.13,1.14-.28,1.88-.28,2.6,0,1,.31,1.75,1,1.75,1.1,0,1.69-1.09,1.91-2.18Z" fill="#000000" fill-opacity="1" stroke="none"/>
        <path d="M4.3,6.65l-.16.52h1L4.15,11c-.17.68-.48,2.52-1.05,2.52-.09,0-.13,0-.13-.08,0-.24.25-.11.25-.53s-.17-.59-.7-.59a.76.76,0,0,0-.74.82c0,.42.36.86,1.15.86A2.42,2.42,0,0,0,5,12.68a5.16,5.16,0,0,0,.46-1.17L6.53,7.17h1l.15-.52h-1l.16-.73c.17-.78.48-1.44.86-1.44.08,0,.12,0,.12.08,0,.24-.25.16-.25.57s.18.55.7.55A.75.75,0,0,0,9,4.86C9,4.44,8.64,4,7.85,4a2.34,2.34,0,0,0-2,1.33c-.37.71-.41,1.32-.86,1.32Z" fill="#000000" fill-opacity="1" stroke="none"/>
    </g>
</svg>
